<mxfile host="app.diagrams.net" agent="Mozilla/5.0 (Windows NT 10.0; Win64; x64) AppleWebKit/537.36 (KHTML, like Gecko) Chrome/140.0.0.0 Safari/537.36" version="28.2.3">
  <diagram name="Page-1" id="jb7ZTe7OzDgbrXbgNiSB">
    <mxGraphModel dx="1042" dy="562" grid="1" gridSize="10" guides="1" tooltips="1" connect="1" arrows="1" fold="1" page="1" pageScale="1" pageWidth="827" pageHeight="1169" math="0" shadow="0">
      <root>
        <mxCell id="0" />
        <mxCell id="1" parent="0" />
        <mxCell id="RRDCjl335gpkMgY8AU1_-25" style="edgeStyle=orthogonalEdgeStyle;rounded=0;orthogonalLoop=1;jettySize=auto;html=1;exitX=0.5;exitY=1;exitDx=0;exitDy=0;entryX=0.5;entryY=0;entryDx=0;entryDy=0;" edge="1" parent="1" source="RRDCjl335gpkMgY8AU1_-1" target="RRDCjl335gpkMgY8AU1_-2">
          <mxGeometry relative="1" as="geometry" />
        </mxCell>
        <mxCell id="RRDCjl335gpkMgY8AU1_-1" value="Start" style="ellipse;whiteSpace=wrap;html=1;fontSize=20;fillColor=#a20025;strokeColor=#6F0000;fontColor=#ffffff;" vertex="1" parent="1">
          <mxGeometry x="335" y="10" width="120" height="80" as="geometry" />
        </mxCell>
        <mxCell id="RRDCjl335gpkMgY8AU1_-26" style="edgeStyle=orthogonalEdgeStyle;rounded=0;orthogonalLoop=1;jettySize=auto;html=1;exitX=0.5;exitY=1;exitDx=0;exitDy=0;" edge="1" parent="1" source="RRDCjl335gpkMgY8AU1_-2">
          <mxGeometry relative="1" as="geometry">
            <mxPoint x="395" y="230" as="targetPoint" />
          </mxGeometry>
        </mxCell>
        <mxCell id="RRDCjl335gpkMgY8AU1_-2" value="Choose your location" style="shape=parallelogram;perimeter=parallelogramPerimeter;whiteSpace=wrap;html=1;fixedSize=1;fontSize=17;fillColor=#f8cecc;strokeColor=#b85450;gradientColor=#ea6b66;" vertex="1" parent="1">
          <mxGeometry x="290" y="130" width="210" height="60" as="geometry" />
        </mxCell>
        <mxCell id="RRDCjl335gpkMgY8AU1_-29" style="edgeStyle=orthogonalEdgeStyle;rounded=0;orthogonalLoop=1;jettySize=auto;html=1;exitX=0.5;exitY=1;exitDx=0;exitDy=0;" edge="1" parent="1" source="RRDCjl335gpkMgY8AU1_-3">
          <mxGeometry relative="1" as="geometry">
            <mxPoint x="395" y="330" as="targetPoint" />
          </mxGeometry>
        </mxCell>
        <mxCell id="RRDCjl335gpkMgY8AU1_-3" value="Show available restaurants" style="rounded=0;whiteSpace=wrap;html=1;fontSize=15;fillColor=#f8cecc;gradientColor=#ea6b66;strokeColor=#b85450;" vertex="1" parent="1">
          <mxGeometry x="305" y="230" width="180" height="60" as="geometry" />
        </mxCell>
        <mxCell id="RRDCjl335gpkMgY8AU1_-34" style="edgeStyle=orthogonalEdgeStyle;rounded=0;orthogonalLoop=1;jettySize=auto;html=1;exitX=0.5;exitY=1;exitDx=0;exitDy=0;entryX=0.5;entryY=0;entryDx=0;entryDy=0;" edge="1" parent="1" source="RRDCjl335gpkMgY8AU1_-4" target="RRDCjl335gpkMgY8AU1_-5">
          <mxGeometry relative="1" as="geometry" />
        </mxCell>
        <mxCell id="RRDCjl335gpkMgY8AU1_-4" value="Choose a restaurant" style="shape=parallelogram;perimeter=parallelogramPerimeter;whiteSpace=wrap;html=1;fixedSize=1;fontSize=16;fillColor=#f8cecc;gradientColor=#ea6b66;strokeColor=#b85450;" vertex="1" parent="1">
          <mxGeometry x="290" y="330" width="210" height="60" as="geometry" />
        </mxCell>
        <mxCell id="RRDCjl335gpkMgY8AU1_-36" style="edgeStyle=orthogonalEdgeStyle;rounded=0;orthogonalLoop=1;jettySize=auto;html=1;exitX=0.5;exitY=1;exitDx=0;exitDy=0;" edge="1" parent="1" source="RRDCjl335gpkMgY8AU1_-5" target="RRDCjl335gpkMgY8AU1_-7">
          <mxGeometry relative="1" as="geometry" />
        </mxCell>
        <mxCell id="RRDCjl335gpkMgY8AU1_-5" value="Show the chosen restaurant details" style="rounded=0;whiteSpace=wrap;html=1;fontSize=16;fillColor=#f8cecc;gradientColor=#ea6b66;strokeColor=#b85450;" vertex="1" parent="1">
          <mxGeometry x="255" y="450" width="280" height="60" as="geometry" />
        </mxCell>
        <mxCell id="RRDCjl335gpkMgY8AU1_-37" style="edgeStyle=orthogonalEdgeStyle;rounded=0;orthogonalLoop=1;jettySize=auto;html=1;exitX=0.5;exitY=1;exitDx=0;exitDy=0;" edge="1" parent="1" source="RRDCjl335gpkMgY8AU1_-7" target="RRDCjl335gpkMgY8AU1_-10">
          <mxGeometry relative="1" as="geometry" />
        </mxCell>
        <mxCell id="RRDCjl335gpkMgY8AU1_-7" value="Is open?" style="rhombus;whiteSpace=wrap;html=1;fontSize=16;fillColor=#d5e8d4;gradientColor=#97d077;strokeColor=#82b366;" vertex="1" parent="1">
          <mxGeometry x="327.5" y="560" width="135" height="125" as="geometry" />
        </mxCell>
        <mxCell id="RRDCjl335gpkMgY8AU1_-38" style="edgeStyle=orthogonalEdgeStyle;rounded=0;orthogonalLoop=1;jettySize=auto;html=1;exitX=0.5;exitY=1;exitDx=0;exitDy=0;entryX=0.5;entryY=0;entryDx=0;entryDy=0;" edge="1" parent="1" source="RRDCjl335gpkMgY8AU1_-10" target="RRDCjl335gpkMgY8AU1_-12">
          <mxGeometry relative="1" as="geometry" />
        </mxCell>
        <mxCell id="RRDCjl335gpkMgY8AU1_-10" value="Choose your menu" style="shape=parallelogram;perimeter=parallelogramPerimeter;whiteSpace=wrap;html=1;fixedSize=1;fontSize=16;fillColor=#f8cecc;gradientColor=#ea6b66;strokeColor=#b85450;" vertex="1" parent="1">
          <mxGeometry x="295" y="720" width="200" height="60" as="geometry" />
        </mxCell>
        <mxCell id="RRDCjl335gpkMgY8AU1_-39" style="edgeStyle=orthogonalEdgeStyle;rounded=0;orthogonalLoop=1;jettySize=auto;html=1;exitX=0.5;exitY=1;exitDx=0;exitDy=0;entryX=0.5;entryY=0;entryDx=0;entryDy=0;" edge="1" parent="1" source="RRDCjl335gpkMgY8AU1_-12" target="RRDCjl335gpkMgY8AU1_-13">
          <mxGeometry relative="1" as="geometry" />
        </mxCell>
        <mxCell id="RRDCjl335gpkMgY8AU1_-12" value="Choose your delivery time" style="shape=parallelogram;perimeter=parallelogramPerimeter;whiteSpace=wrap;html=1;fixedSize=1;fontSize=15;fillColor=#f8cecc;gradientColor=#ea6b66;strokeColor=#b85450;" vertex="1" parent="1">
          <mxGeometry x="290" y="820" width="210" height="60" as="geometry" />
        </mxCell>
        <mxCell id="RRDCjl335gpkMgY8AU1_-40" style="edgeStyle=orthogonalEdgeStyle;rounded=0;orthogonalLoop=1;jettySize=auto;html=1;exitX=0.5;exitY=1;exitDx=0;exitDy=0;entryX=0.5;entryY=0;entryDx=0;entryDy=0;" edge="1" parent="1" source="RRDCjl335gpkMgY8AU1_-13" target="RRDCjl335gpkMgY8AU1_-15">
          <mxGeometry relative="1" as="geometry" />
        </mxCell>
        <mxCell id="RRDCjl335gpkMgY8AU1_-41" style="edgeStyle=orthogonalEdgeStyle;rounded=0;orthogonalLoop=1;jettySize=auto;html=1;exitX=1;exitY=0.5;exitDx=0;exitDy=0;entryX=0;entryY=0.5;entryDx=0;entryDy=0;" edge="1" parent="1" source="RRDCjl335gpkMgY8AU1_-13" target="RRDCjl335gpkMgY8AU1_-17">
          <mxGeometry relative="1" as="geometry" />
        </mxCell>
        <mxCell id="RRDCjl335gpkMgY8AU1_-13" value="Is the selected card the one i want use?" style="rhombus;whiteSpace=wrap;html=1;fillColor=#d5e8d4;gradientColor=#97d077;strokeColor=#82b366;" vertex="1" parent="1">
          <mxGeometry x="305" y="935" width="180" height="160" as="geometry" />
        </mxCell>
        <mxCell id="RRDCjl335gpkMgY8AU1_-46" style="edgeStyle=orthogonalEdgeStyle;rounded=0;orthogonalLoop=1;jettySize=auto;html=1;exitX=0.5;exitY=1;exitDx=0;exitDy=0;entryX=0.5;entryY=0;entryDx=0;entryDy=0;" edge="1" parent="1" source="RRDCjl335gpkMgY8AU1_-15" target="RRDCjl335gpkMgY8AU1_-20">
          <mxGeometry relative="1" as="geometry" />
        </mxCell>
        <mxCell id="RRDCjl335gpkMgY8AU1_-15" value="Pay" style="rounded=0;whiteSpace=wrap;html=1;fontSize=19;fillColor=#f8cecc;gradientColor=#ea6b66;strokeColor=#b85450;" vertex="1" parent="1">
          <mxGeometry x="300" y="1169" width="190" height="60" as="geometry" />
        </mxCell>
        <mxCell id="RRDCjl335gpkMgY8AU1_-42" style="edgeStyle=orthogonalEdgeStyle;rounded=0;orthogonalLoop=1;jettySize=auto;html=1;exitX=1;exitY=0.5;exitDx=0;exitDy=0;" edge="1" parent="1" source="RRDCjl335gpkMgY8AU1_-17">
          <mxGeometry relative="1" as="geometry">
            <mxPoint x="840" y="1015" as="targetPoint" />
          </mxGeometry>
        </mxCell>
        <mxCell id="RRDCjl335gpkMgY8AU1_-43" style="edgeStyle=orthogonalEdgeStyle;rounded=0;orthogonalLoop=1;jettySize=auto;html=1;exitX=0.5;exitY=1;exitDx=0;exitDy=0;" edge="1" parent="1" source="RRDCjl335gpkMgY8AU1_-17">
          <mxGeometry relative="1" as="geometry">
            <mxPoint x="660" y="1140" as="targetPoint" />
          </mxGeometry>
        </mxCell>
        <mxCell id="RRDCjl335gpkMgY8AU1_-17" value="is the card listed?" style="rhombus;whiteSpace=wrap;html=1;fontSize=15;fillColor=#d5e8d4;gradientColor=#97d077;strokeColor=#82b366;" vertex="1" parent="1">
          <mxGeometry x="570" y="940" width="180" height="150" as="geometry" />
        </mxCell>
        <mxCell id="RRDCjl335gpkMgY8AU1_-18" value="Add the new card" style="rounded=0;whiteSpace=wrap;html=1;fontSize=14;fillColor=#f8cecc;gradientColor=#ea6b66;strokeColor=#b85450;" vertex="1" parent="1">
          <mxGeometry x="850" y="980" width="130" height="60" as="geometry" />
        </mxCell>
        <mxCell id="RRDCjl335gpkMgY8AU1_-19" value="Select the card" style="shape=parallelogram;perimeter=parallelogramPerimeter;whiteSpace=wrap;html=1;fixedSize=1;fontSize=17;fillColor=#f8cecc;gradientColor=#ea6b66;strokeColor=#b85450;" vertex="1" parent="1">
          <mxGeometry x="570" y="1150" width="200" height="60" as="geometry" />
        </mxCell>
        <mxCell id="RRDCjl335gpkMgY8AU1_-47" style="edgeStyle=orthogonalEdgeStyle;rounded=0;orthogonalLoop=1;jettySize=auto;html=1;exitX=0.5;exitY=1;exitDx=0;exitDy=0;entryX=0.5;entryY=0;entryDx=0;entryDy=0;" edge="1" parent="1" source="RRDCjl335gpkMgY8AU1_-20" target="RRDCjl335gpkMgY8AU1_-21">
          <mxGeometry relative="1" as="geometry" />
        </mxCell>
        <mxCell id="RRDCjl335gpkMgY8AU1_-20" value="processing the order confirmation" style="rounded=0;whiteSpace=wrap;html=1;fontSize=16;fillColor=#f8cecc;gradientColor=#ea6b66;strokeColor=#b85450;" vertex="1" parent="1">
          <mxGeometry x="305" y="1280" width="180" height="60" as="geometry" />
        </mxCell>
        <mxCell id="RRDCjl335gpkMgY8AU1_-48" style="edgeStyle=orthogonalEdgeStyle;rounded=0;orthogonalLoop=1;jettySize=auto;html=1;exitX=0.5;exitY=1;exitDx=0;exitDy=0;entryX=0.5;entryY=0;entryDx=0;entryDy=0;" edge="1" parent="1" source="RRDCjl335gpkMgY8AU1_-21" target="RRDCjl335gpkMgY8AU1_-22">
          <mxGeometry relative="1" as="geometry" />
        </mxCell>
        <mxCell id="RRDCjl335gpkMgY8AU1_-21" value="Your order was delivered" style="shape=parallelogram;perimeter=parallelogramPerimeter;whiteSpace=wrap;html=1;fixedSize=1;fontSize=15;fillColor=#f8cecc;gradientColor=#ea6b66;strokeColor=#b85450;" vertex="1" parent="1">
          <mxGeometry x="285" y="1400" width="220" height="60" as="geometry" />
        </mxCell>
        <mxCell id="RRDCjl335gpkMgY8AU1_-22" value="Stop" style="ellipse;whiteSpace=wrap;html=1;fontSize=19;fillColor=#a20025;fontColor=#ffffff;strokeColor=#6F0000;" vertex="1" parent="1">
          <mxGeometry x="335" y="1510" width="120" height="80" as="geometry" />
        </mxCell>
        <mxCell id="RRDCjl335gpkMgY8AU1_-31" style="edgeStyle=orthogonalEdgeStyle;rounded=0;orthogonalLoop=1;jettySize=auto;html=1;exitX=0.5;exitY=1;exitDx=0;exitDy=0;" edge="1" parent="1" source="RRDCjl335gpkMgY8AU1_-4" target="RRDCjl335gpkMgY8AU1_-4">
          <mxGeometry relative="1" as="geometry" />
        </mxCell>
        <mxCell id="RRDCjl335gpkMgY8AU1_-45" value="" style="endArrow=classic;html=1;rounded=0;exitX=0.5;exitY=1;exitDx=0;exitDy=0;" edge="1" parent="1" source="RRDCjl335gpkMgY8AU1_-18" target="RRDCjl335gpkMgY8AU1_-19">
          <mxGeometry width="50" height="50" relative="1" as="geometry">
            <mxPoint x="720" y="1380" as="sourcePoint" />
            <mxPoint x="770" y="1330" as="targetPoint" />
            <Array as="points">
              <mxPoint x="910" y="1180" />
            </Array>
          </mxGeometry>
        </mxCell>
        <mxCell id="RRDCjl335gpkMgY8AU1_-49" value="" style="endArrow=classic;html=1;rounded=0;exitX=1;exitY=0.5;exitDx=0;exitDy=0;entryX=1;entryY=0.5;entryDx=0;entryDy=0;" edge="1" parent="1" source="RRDCjl335gpkMgY8AU1_-7" target="RRDCjl335gpkMgY8AU1_-3">
          <mxGeometry width="50" height="50" relative="1" as="geometry">
            <mxPoint x="470" y="420" as="sourcePoint" />
            <mxPoint x="520" y="370" as="targetPoint" />
            <Array as="points">
              <mxPoint x="640" y="620" />
              <mxPoint x="640" y="260" />
            </Array>
          </mxGeometry>
        </mxCell>
        <mxCell id="RRDCjl335gpkMgY8AU1_-50" value="yes" style="shape=note;whiteSpace=wrap;html=1;backgroundOutline=1;fontColor=#000000;darkOpacity=0.05;fillColor=#FFF9B2;strokeColor=none;fillStyle=solid;direction=west;gradientDirection=north;gradientColor=#FFF2A1;shadow=1;size=3;pointerEvents=1;" vertex="1" parent="1">
          <mxGeometry x="414" y="685" width="66" height="25" as="geometry" />
        </mxCell>
        <mxCell id="RRDCjl335gpkMgY8AU1_-51" value="No" style="shape=note;whiteSpace=wrap;html=1;backgroundOutline=1;fontColor=#000000;darkOpacity=0.05;fillColor=#FFF9B2;strokeColor=none;fillStyle=solid;direction=west;gradientDirection=north;gradientColor=#FFF2A1;shadow=1;size=3;pointerEvents=1;" vertex="1" parent="1">
          <mxGeometry x="505" y="630" width="66" height="25" as="geometry" />
        </mxCell>
        <mxCell id="RRDCjl335gpkMgY8AU1_-52" value="No" style="shape=note;whiteSpace=wrap;html=1;backgroundOutline=1;fontColor=#000000;darkOpacity=0.05;fillColor=#FFF9B2;strokeColor=none;fillStyle=solid;direction=west;gradientDirection=north;gradientColor=#FFF2A1;shadow=1;size=1;pointerEvents=1;" vertex="1" parent="1">
          <mxGeometry x="750" y="1030" width="66" height="25" as="geometry" />
        </mxCell>
        <mxCell id="RRDCjl335gpkMgY8AU1_-53" value="yes" style="shape=note;whiteSpace=wrap;html=1;backgroundOutline=1;fontColor=#000000;darkOpacity=0.05;fillColor=#FFF9B2;strokeColor=none;fillStyle=solid;direction=west;gradientDirection=north;gradientColor=#FFF2A1;shadow=1;size=0;pointerEvents=1;" vertex="1" parent="1">
          <mxGeometry x="670" y="1100" width="66" height="25" as="geometry" />
        </mxCell>
        <mxCell id="RRDCjl335gpkMgY8AU1_-54" value="yes" style="shape=note;whiteSpace=wrap;html=1;backgroundOutline=1;fontColor=#000000;darkOpacity=0.05;fillColor=#FFF9B2;strokeColor=none;fillStyle=solid;direction=west;gradientDirection=north;gradientColor=#FFF2A1;shadow=1;size=1;pointerEvents=1;" vertex="1" parent="1">
          <mxGeometry x="420" y="1130" width="66" height="25" as="geometry" />
        </mxCell>
        <mxCell id="RRDCjl335gpkMgY8AU1_-55" value="No" style="shape=note;whiteSpace=wrap;html=1;backgroundOutline=1;fontColor=#000000;darkOpacity=0.05;fillColor=#FFF9B2;strokeColor=none;fillStyle=solid;direction=west;gradientDirection=north;gradientColor=#FFF2A1;shadow=1;size=0;pointerEvents=1;" vertex="1" parent="1">
          <mxGeometry x="490" y="1020" width="66" height="25" as="geometry" />
        </mxCell>
      </root>
    </mxGraphModel>
  </diagram>
</mxfile>
